<svg width="32" height="32" viewBox="0 0 32 32" fill="none" xmlns="http://www.w3.org/2000/svg">
  <path d="M6.53238 19.3957L1.38194 13H0V19.4411H1.10555V14.3768L5.18227 19.4438L12.1057 19.4438V18.415H7.63794V16.7153H11.2309V15.6865H7.63794V14.0315H12.1057V13.0027H6.53192L6.53238 19.3957Z" fill="white" />
  <path d="M26.8465 13.0027H21.2726V14.0315H23.5297V19.4438H24.6354V14.0315H26.8465V13.0027Z" fill="white" />
  <path d="M14.8889 13.0054H13.4421L18.6243 19.4465H20.0754L17.4839 16.2281L20.0712 13.0103L18.6243 13.0125L16.7596 15.3285L14.8889 13.0054Z" fill="white" />
  <path d="M15.649 16.7053L16.3736 17.6062L14.8889 19.4513H13.438L15.649 16.7053Z" fill="white" />
  <path d="M26.8875 19.3202C26.9451 19.3763 27.014 19.4044 27.095 19.4044C27.1474 19.4044 27.1953 19.3911 27.2387 19.3652C27.283 19.3401 27.3182 19.3054 27.3459 19.2612C27.3728 19.2176 27.3863 19.1689 27.3871 19.1157C27.3863 19.0375 27.3571 18.9703 27.2987 18.9142C27.241 18.8581 27.1729 18.8301 27.095 18.8301C27.014 18.8301 26.9451 18.8581 26.8875 18.9142C26.8298 18.9703 26.8013 19.0375 26.802 19.1157C26.8013 19.1962 26.8298 19.2641 26.8875 19.3202Z" fill="white" />
  <path d="M28.9819 16.6909H29.4718V18.5784C29.4711 18.7518 29.4336 18.9002 29.3602 19.025C29.2861 19.1497 29.1834 19.2449 29.0516 19.3121C28.9205 19.3785 28.7669 19.4125 28.5924 19.4125C28.4328 19.4125 28.2898 19.3837 28.1624 19.3276C28.0351 19.2715 27.934 19.1873 27.8598 19.0766C27.7848 18.9659 27.7481 18.8279 27.7481 18.6625H28.2389C28.2396 18.7349 28.2561 18.7976 28.2875 18.85C28.3189 18.9024 28.3624 18.9423 28.4179 18.9703C28.474 18.9984 28.5385 19.0124 28.6111 19.0124C28.6898 19.0124 28.7572 18.9962 28.8119 18.9629C28.8665 18.9305 28.9085 18.8817 28.9377 18.8168C28.9662 18.7526 28.9812 18.6729 28.9819 18.5784V16.6909Z" fill="white" />
  <path d="M31.3318 17.1619C31.4232 17.2254 31.4756 17.3147 31.4876 17.4291H31.9626C31.9603 17.2778 31.9168 17.1442 31.8337 17.0276C31.7506 16.9109 31.6359 16.8194 31.4899 16.7537C31.3437 16.6873 31.1745 16.6548 30.9812 16.6548C30.791 16.6548 30.6202 16.6873 30.4689 16.7537C30.3183 16.8194 30.1991 16.9117 30.1123 17.0305C30.0246 17.1494 29.9811 17.2881 29.9811 17.4461C29.9811 17.6387 30.0456 17.7923 30.1759 17.9082C30.3055 18.0241 30.4831 18.1104 30.7071 18.1673L31.0172 18.2455C31.1145 18.2699 31.2 18.2979 31.2733 18.3289C31.346 18.3599 31.403 18.3983 31.4441 18.4441C31.4846 18.4898 31.5056 18.5481 31.5063 18.6183C31.5056 18.695 31.4824 18.7622 31.4359 18.819C31.3902 18.8766 31.3265 18.9209 31.2456 18.9526C31.164 18.9844 31.0696 19.0006 30.9625 19.0006C30.8599 19.0006 30.767 18.9851 30.6839 18.9549C30.6014 18.9239 30.534 18.8781 30.4823 18.8161C30.4314 18.7534 30.4015 18.6758 30.3947 18.5828H29.9093C29.916 18.7607 29.9632 18.9121 30.0508 19.0361C30.1385 19.1601 30.2599 19.2546 30.4157 19.3188C30.5707 19.3837 30.755 19.4162 30.9662 19.4162C31.185 19.4162 31.3707 19.3823 31.5243 19.3158C31.6786 19.2486 31.7962 19.1556 31.8778 19.0368C31.9595 18.9172 32 18.7792 32 18.622C32 18.5053 31.9775 18.4042 31.9333 18.3178C31.8891 18.2315 31.8292 18.1577 31.7535 18.0964C31.6779 18.0351 31.5917 17.9842 31.4966 17.9443C31.4015 17.9037 31.3018 17.872 31.1992 17.8484L30.9437 17.7856C30.8884 17.7723 30.8329 17.7561 30.7775 17.7369C30.7228 17.7177 30.6726 17.6941 30.6276 17.6653C30.5819 17.6373 30.5468 17.6026 30.5205 17.5612C30.4943 17.5206 30.4808 17.4719 30.4808 17.4158C30.4823 17.3486 30.5018 17.2889 30.5407 17.2364C30.5797 17.184 30.6367 17.1427 30.7101 17.1117C30.7835 17.0814 30.8719 17.0659 30.9744 17.0659C31.1206 17.0659 31.2396 17.0977 31.3318 17.1619Z" fill="white" />
</svg>